<?xml version="1.0" standalone="no"?>
<!DOCTYPE svg PUBLIC "-//W3C//DTD SVG 20010904//EN"
 "http://www.w3.org/TR/2001/REC-SVG-20010904/DTD/svg10.dtd">
<svg version="1.0" xmlns="http://www.w3.org/2000/svg"
 width="554.000000pt" height="554.000000pt" viewBox="0 0 554.000000 554.000000"
 preserveAspectRatio="xMidYMid meet">

<g transform="translate(0.000000,554.000000) scale(0.100000,-0.100000)"
fill="#000000" stroke="none">
<path d="M2926 4479 l-26 -20 0 -205 c0 -204 0 -205 25 -229 15 -16 36 -25 55
-25 19 0 40 9 55 25 25 24 25 25 25 225 0 200 0 201 -25 225 -30 31 -73 32
-109 4z"/>
<path d="M1865 4035 c-16 -15 -25 -35 -25 -56 0 -28 19 -51 143 -176 125 -126
146 -143 175 -143 44 0 82 38 82 81 0 28 -18 51 -142 176 -126 127 -146 143
-176 143 -22 0 -41 -8 -57 -25z"/>
<path d="M3862 3917 c-125 -125 -142 -146 -142 -175 0 -44 38 -82 81 -82 28 0
50 17 161 128 130 128 158 163 158 202 0 33 -44 70 -82 70 -29 0 -50 -17 -176
-143z"/>
<path d="M2880 3830 c-379 -37 -698 -321 -791 -705 -34 -142 -23 -357 25 -492
l15 -41 -73 5 c-88 7 -160 -8 -236 -49 -88 -47 -162 -124 -198 -209 l-20 -46
-94 -5 c-83 -4 -104 -10 -170 -41 -159 -77 -268 -249 -268 -423 0 -208 126
-389 317 -455 54 -18 89 -19 758 -19 l703 0 80 23 c106 31 181 77 267 162 132
132 186 259 193 452 l4 122 66 38 c171 100 324 296 390 499 69 212 50 481 -49
677 -145 287 -418 477 -726 507 -54 5 -102 9 -108 8 -5 0 -44 -4 -85 -8z m242
-174 c159 -31 287 -103 403 -228 233 -251 267 -621 82 -906 -62 -95 -109 -146
-191 -203 l-69 -49 -45 78 c-66 112 -161 202 -276 257 -118 57 -179 69 -307
63 -138 -7 -242 -43 -356 -124 -21 -15 -22 -14 -57 58 -173 363 -31 794 324
982 59 31 167 68 230 79 57 10 193 6 262 -7z m-291 -1156 c165 -31 313 -162
369 -326 93 -267 -55 -564 -319 -644 -64 -20 -89 -20 -751 -18 l-685 3 -42 23
c-58 30 -108 82 -140 145 -22 43 -26 65 -27 132 0 95 21 150 83 218 63 68 122
89 267 96 76 4 127 11 136 19 9 7 21 34 28 60 23 92 89 175 167 207 20 9 66
15 107 15 60 0 79 -5 121 -29 28 -16 68 -48 90 -70 60 -62 86 -58 173 28 123
122 269 170 423 141z"/>
<path d="M1463 3003 c-27 -5 -63 -48 -63 -74 0 -31 21 -66 47 -78 15 -7 96
-11 214 -11 188 0 190 0 214 25 27 26 33 72 15 105 -6 11 -27 24 -48 30 -35 9
-332 12 -379 3z"/>
<path d="M4080 2980 c-33 -33 -30 -85 6 -117 24 -22 32 -23 220 -23 l196 0 30
30 c25 26 29 36 24 63 -12 64 -25 67 -252 67 -191 0 -205 -1 -224 -20z"/>
<path d="M3770 2178 c-33 -12 -49 -38 -50 -77 0 -31 14 -48 138 -173 158 -159
181 -171 232 -120 54 54 47 68 -111 228 -78 78 -151 144 -164 146 -12 3 -32 1
-45 -4z"/>
</g>
</svg>
